<?xml version="1.0" encoding="utf-8"?>
<svg version="1.1" xmlns:xlink="http://www.w3.org/1999/xlink" width="12px" height="12px" viewBox="280 151  12 12" xmlns="http://www.w3.org/2000/svg">
  <path d="M 286 151  C 289.36 151  292 153.64  292 157  C 292 160.36  289.36 163  286 163  C 282.64 163  280 160.36  280 157  C 280 153.64  282.64 151  286 151  Z " fill-rule="nonzero" fill="#ffffff" stroke="none" />
  <path d="M 286 151.5  C 289.08 151.5  291.5 153.92  291.5 157  C 291.5 160.08  289.08 162.5  286 162.5  C 282.92 162.5  280.5 160.08  280.5 157  C 280.5 153.92  282.92 151.5  286 151.5  Z " stroke-width="1" stroke="#797979" fill="none" />
  <path d="M 286 160  C 284.32 160  283 158.68  283 157  C 283 155.32  284.32 154  286 154  C 287.68 154  289 155.32  289 157  C 289 158.68  287.68 160  286 160  " fill-rule="nonzero" fill="#797979" stroke="none" />
</svg>